<svg width="178" height="56" viewBox="0 0 178 56" fill="none" xmlns="http://www.w3.org/2000/svg">
<g clip-path="url(#clip0_22103_119863)">
<path d="M164.593 0.000182H13.4147C12.8988 0.000182 12.3891 0.000182 11.8745 0.002982C11.4438 0.005782 11.0165 0.013916 10.5816 0.020762C9.63687 0.0318245 8.69435 0.114529 7.76224 0.268156C6.83144 0.425128 5.9298 0.721064 5.08781 1.14596C4.24685 1.57444 3.47845 2.13122 2.81047 2.79608C2.13898 3.45907 1.57924 4.22541 1.15278 5.06561C0.725138 5.90414 0.428612 6.8027 0.273439 7.73026C0.116792 8.65664 0.0324981 9.59371 0.0213152 10.5331C0.00825875 10.9623 0.00687995 11.393 0 11.8223V44.1822C0.00687995 44.6169 0.00825875 45.038 0.0213152 45.4729C0.0325015 46.4122 0.116795 47.3492 0.273439 48.2755C0.428183 49.2036 0.724728 50.1027 1.15278 50.9416C1.57905 51.779 2.13886 52.5423 2.81047 53.2016C3.47591 53.8694 4.24482 54.4266 5.08781 54.8518C5.92979 55.2778 6.83134 55.5755 7.76224 55.7349C8.69451 55.8873 9.63693 55.97 10.5816 55.9824C11.0165 55.9919 11.4438 55.9974 11.8745 55.9974C12.3891 56.0002 12.8988 56.0002 13.4147 56.0002H164.593C165.098 56.0002 165.612 56.0002 166.118 55.9974C166.547 55.9974 166.986 55.9919 167.415 55.9824C168.358 55.9707 169.299 55.8879 170.229 55.7349C171.163 55.5744 172.068 55.2767 172.914 54.8518C173.756 54.4263 174.524 53.8692 175.189 53.2016C175.859 52.5397 176.42 51.777 176.851 50.9416C177.276 50.1021 177.57 49.2031 177.722 48.2755C177.879 47.3491 177.967 46.4123 177.984 45.4729C177.989 45.038 177.989 44.6169 177.989 44.1822C178 43.6736 178 43.1678 178 42.6509V13.3508C178 12.8381 178 12.3295 177.989 11.8223C177.989 11.393 177.989 10.9623 177.984 10.533C177.967 9.59357 177.879 8.65671 177.722 7.7302C177.57 6.80318 177.276 5.90469 176.851 5.06555C175.983 3.38146 174.606 2.01062 172.914 1.14583C172.068 0.721976 171.163 0.426119 170.229 0.26803C169.299 0.113726 168.358 0.0309929 167.415 0.020566C166.986 0.013734 166.547 0.00553 166.118 0.0028C165.612 0 165.098 0.000182 164.593 0.000182Z" fill="white"/>
<path d="M11.8814 54.7751C11.4527 54.7751 11.0344 54.7696 10.6091 54.7601C9.72805 54.7487 8.84906 54.6724 7.97933 54.5318C7.16835 54.3928 6.38274 54.1343 5.64839 53.7647C4.92078 53.3982 4.25714 52.9177 3.68289 52.3415C3.10034 51.7721 2.61533 51.1116 2.24709 50.3864C1.8748 49.6564 1.61715 48.874 1.48313 48.0663C1.33838 47.1985 1.26007 46.3209 1.24887 45.4413C1.23995 45.146 1.22827 44.163 1.22827 44.163V11.8222C1.22827 11.8222 1.24071 10.8542 1.24894 10.5698C1.25967 9.69157 1.33752 8.81541 1.48183 7.94892C1.61611 7.13905 1.87396 6.35435 2.24645 5.62198C2.61333 4.89722 3.09564 4.2363 3.67469 3.66485C4.25309 3.08797 4.91885 2.60494 5.6477 2.23339C6.38036 1.86503 7.16449 1.60832 7.97383 1.47188C8.84641 1.32987 9.72846 1.25309 10.6126 1.24219L11.8821 1.2251H166.111L167.396 1.24288C168.272 1.25324 169.146 1.32933 170.01 1.4705C170.828 1.60866 171.62 1.86716 172.361 2.23749C173.821 2.98628 175.01 4.17093 175.759 5.6254C176.126 6.35271 176.379 7.13101 176.512 7.93388C176.658 8.80749 176.74 9.69053 176.757 10.576C176.761 10.9725 176.761 11.3983 176.761 11.8222C176.772 12.3472 176.772 12.8469 176.772 13.3507V42.6508C176.772 43.1594 176.772 43.6557 176.761 44.1561C176.761 44.6114 176.761 45.0284 176.755 45.4577C176.739 46.3273 176.658 47.1946 176.515 48.0526C176.383 48.8661 176.127 49.6546 175.755 50.3906C175.384 51.108 174.902 51.7627 174.326 52.3306C173.751 52.9099 173.087 53.3932 172.357 53.7621C171.618 54.1344 170.827 54.3939 170.01 54.5318C169.141 54.6731 168.262 54.7494 167.381 54.7601C166.968 54.7696 166.537 54.7751 166.118 54.7751L164.593 54.7779L11.8814 54.7751Z" fill="black"/>
<path d="M35.169 27.845C35.1847 26.6298 35.5091 25.4384 36.1119 24.3815C36.7147 23.3246 37.5764 22.4366 38.6168 21.8002C37.9559 20.8609 37.0839 20.088 36.0703 19.5427C35.0566 18.9974 33.9292 18.6948 32.7774 18.6589C30.3206 18.4023 27.9388 20.1218 26.6868 20.1218C25.4106 20.1218 23.483 18.6844 21.4073 18.7269C20.0646 18.7701 18.7561 19.1586 17.6093 19.8545C16.4624 20.5505 15.5163 21.5303 14.863 22.6983C12.0335 27.5731 14.1441 34.7374 16.8546 38.6779C18.2107 40.6074 19.7956 42.7627 21.8695 42.6863C23.8988 42.6025 24.6568 41.3986 27.1064 41.3986C29.5333 41.3986 30.2444 42.6863 32.3603 42.6377C34.5379 42.6025 35.9099 40.6996 37.2185 38.7518C38.1928 37.377 38.9426 35.8574 39.44 34.2496C38.1749 33.7171 37.0953 32.8259 36.3357 31.6869C35.5762 30.548 35.1704 29.2118 35.169 27.845Z" fill="white"/>
<path d="M31.1724 16.0674C32.3598 14.6491 32.9447 12.8261 32.8031 10.9856C30.9891 11.1752 29.3135 12.0379 28.1101 13.4017C27.5218 14.068 27.0712 14.8432 26.784 15.6829C26.4969 16.5226 26.3789 17.4103 26.4368 18.2954C27.3441 18.3047 28.2417 18.1091 29.062 17.7231C29.8823 17.3372 30.6039 16.7711 31.1724 16.0674Z" fill="white"/>
<path d="M50.1175 20.5825V13.4096H47.4767V12.229H54.0566V13.4096H51.4214V20.5825H50.1175Z" fill="white"/>
<path d="M60.12 18.8803C59.9501 19.4564 59.5821 19.9548 59.0803 20.2882C58.5784 20.6216 57.9747 20.7688 57.3748 20.7041C56.9575 20.7151 56.5427 20.6355 56.1593 20.471C55.7759 20.3064 55.4331 20.0608 55.1546 19.7512C54.8762 19.4416 54.6687 19.0755 54.5468 18.6781C54.4248 18.2808 54.3912 17.8618 54.4483 17.4502C54.3927 17.0373 54.4269 16.6174 54.5486 16.2189C54.6703 15.8204 54.8766 15.4525 55.1536 15.1402C55.4306 14.8279 55.7717 14.5784 56.154 14.4087C56.5363 14.2391 56.9508 14.1531 57.3693 14.1566C59.1321 14.1566 60.1956 15.355 60.1956 17.3346V17.7687H55.7219V17.8384C55.7023 18.0698 55.7316 18.3026 55.8077 18.5221C55.8839 18.7415 56.0053 18.9427 56.1641 19.1128C56.323 19.2828 56.5158 19.4179 56.7302 19.5095C56.9446 19.601 57.1759 19.647 57.4092 19.6444C57.7082 19.6802 58.0112 19.6266 58.2796 19.4905C58.548 19.3544 58.7697 19.1419 58.9164 18.8802L60.12 18.8803ZM55.7219 16.8486H58.9219C58.9376 16.6371 58.9088 16.4245 58.8371 16.2247C58.7654 16.0249 58.6525 15.8423 58.5056 15.6884C58.3587 15.5346 58.1812 15.4131 57.9843 15.3317C57.7874 15.2502 57.5756 15.2107 57.3624 15.2155C57.1462 15.2128 56.9316 15.2532 56.7313 15.3343C56.531 15.4155 56.349 15.5357 56.1961 15.6879C56.0432 15.8401 55.9225 16.0212 55.8411 16.2205C55.7596 16.4199 55.7191 16.6335 55.7219 16.8486ZM56.6177 13.2242L58.0783 11.2329H59.5443L57.9093 13.2242H56.6177Z" fill="white"/>
<path d="M61.9323 11.8174H63.1826V20.5824H61.9323V11.8174Z" fill="white"/>
<path d="M70.5924 18.8803C70.4226 19.4564 70.0545 19.9548 69.5527 20.2882C69.0508 20.6216 68.4472 20.7688 67.8473 20.7041C67.4299 20.7151 67.0151 20.6355 66.6317 20.471C66.2483 20.3064 65.9055 20.0608 65.627 19.7512C65.3486 19.4416 65.1412 19.0755 65.0192 18.6781C64.8972 18.2808 64.8636 17.8618 64.9207 17.4502C64.8651 17.0373 64.8993 16.6174 65.021 16.2189C65.1427 15.8204 65.349 15.4525 65.626 15.1402C65.903 14.8279 66.2441 14.5784 66.6264 14.4087C67.0087 14.2391 67.4232 14.1531 67.8418 14.1566C69.6046 14.1566 70.668 15.355 70.668 17.3346V17.7687H66.1944V17.8384C66.1748 18.0698 66.204 18.3026 66.2802 18.5221C66.3563 18.7415 66.4777 18.9427 66.6366 19.1128C66.7954 19.2828 66.9882 19.4179 67.2026 19.5095C67.417 19.601 67.6483 19.647 67.8816 19.6444C68.1807 19.6802 68.4837 19.6266 68.7521 19.4905C69.0205 19.3544 69.2421 19.1419 69.3888 18.8802L70.5924 18.8803ZM66.1943 16.8486H69.3943C69.4101 16.6371 69.3812 16.4245 69.3095 16.2247C69.2378 16.0249 69.1249 15.8423 68.978 15.6884C68.8311 15.5346 68.6536 15.4131 68.4567 15.3317C68.2598 15.2502 68.048 15.2107 67.8348 15.2155C67.6186 15.2128 67.404 15.2532 67.2037 15.3344C67.0034 15.4155 66.8214 15.5357 66.6685 15.6879C66.5157 15.8401 66.3949 16.0212 66.3135 16.2205C66.2321 16.4199 66.1915 16.6335 66.1943 16.8486ZM67.0902 13.2242L68.5507 11.2329H70.0167L68.3816 13.2242H67.0902Z" fill="white"/>
<path d="M76.4949 16.3387C76.4152 16.0118 76.2205 15.7241 75.946 15.5278C75.6715 15.3314 75.3354 15.2393 74.9986 15.2682C73.9517 15.2682 73.3114 16.0666 73.3114 17.4099C73.3114 18.7764 73.9572 19.5926 74.9986 19.5926C75.3321 19.6311 75.6682 19.547 75.9438 19.3561C76.2193 19.1653 76.4153 18.8808 76.4949 18.5563H77.7109C77.6304 19.1947 77.3026 19.7765 76.7972 20.1777C76.2918 20.579 75.6489 20.7679 75.0055 20.7042C74.5819 20.7175 74.1605 20.6385 73.7707 20.4728C73.381 20.3072 73.0323 20.0588 72.7491 19.745C72.4659 19.4312 72.255 19.0597 72.1312 18.6563C72.0074 18.253 71.9736 17.8276 72.0323 17.41C71.9766 16.9954 72.0125 16.5737 72.1375 16.1743C72.2625 15.7749 72.4736 15.4075 72.7561 15.0978C73.0386 14.788 73.3856 14.5433 73.7729 14.3808C74.1602 14.2182 74.5786 14.1418 74.9987 14.1567C75.6473 14.0973 76.2936 14.292 76.8002 14.6996C77.3067 15.1071 77.6334 15.6952 77.7109 16.3388L76.4949 16.3387Z" fill="white"/>
<path d="M79.3707 11.8174H80.61V15.2914H80.7089C80.8751 14.9284 81.1498 14.6251 81.4955 14.423C81.8411 14.221 82.241 14.1298 82.6406 14.1621C82.9473 14.1455 83.2539 14.1965 83.5385 14.3113C83.8231 14.4262 84.0787 14.6021 84.2871 14.8266C84.4955 15.0511 84.6515 15.3185 84.7441 15.6099C84.8366 15.9013 84.8634 16.2094 84.8225 16.5123V20.5824H83.5708V16.8192C83.5708 15.8123 83.0995 15.3023 82.2161 15.3023C82.0012 15.2848 81.785 15.3142 81.5828 15.3885C81.3805 15.4627 81.1969 15.5801 81.045 15.7323C80.8931 15.8846 80.7764 16.068 80.7031 16.2698C80.6299 16.4716 80.6018 16.6869 80.6209 16.9006V20.5824H79.3706L79.3707 11.8174Z" fill="white"/>
<path d="M86.3944 18.7997C86.3944 17.6649 87.2435 17.0107 88.7508 16.9178L90.4668 16.8193V16.2752C90.4668 15.6094 90.0244 15.2334 89.1698 15.2334C88.4719 15.2334 87.9882 15.4884 87.8494 15.9341H86.639C86.7668 14.8513 87.7904 14.1567 89.2275 14.1567C90.8158 14.1567 91.7117 14.9435 91.7117 16.2752V20.5825H90.5081V19.6966H90.4091C90.2084 20.0144 89.9264 20.2734 89.5921 20.4473C89.2578 20.6212 88.883 20.7037 88.5062 20.6864C88.2402 20.7139 87.9714 20.6857 87.7171 20.6035C87.4628 20.5213 87.2286 20.387 87.0296 20.2093C86.8307 20.0315 86.6713 19.8142 86.5619 19.5715C86.4525 19.3287 86.3955 19.0658 86.3944 18.7997ZM90.4668 18.261V17.734L88.9198 17.8324C88.0473 17.8905 87.6516 18.1858 87.6516 18.7416C87.6516 19.309 88.1462 19.6392 88.8264 19.6392C89.0257 19.6592 89.227 19.6392 89.4183 19.5803C89.6097 19.5213 89.7872 19.4247 89.9402 19.2961C90.0933 19.1676 90.2188 19.0097 90.3092 18.8318C90.3997 18.654 90.4533 18.4599 90.4668 18.261Z" fill="white"/>
<path d="M93.6696 14.2784H94.8732V15.245H94.9666C95.1013 14.9094 95.3395 14.625 95.6468 14.4326C95.9541 14.2401 96.3149 14.1495 96.6772 14.1738C96.8644 14.1713 97.0514 14.1887 97.235 14.2257V15.4535C97.0055 15.4048 96.7717 15.3796 96.537 15.3783C96.3308 15.3599 96.123 15.3846 95.9269 15.4509C95.7309 15.5171 95.5509 15.6234 95.3986 15.763C95.2463 15.9026 95.1251 16.0723 95.0426 16.2613C94.9601 16.4503 94.9183 16.6543 94.9199 16.8604V20.5825H93.6696V14.2784Z" fill="white"/>
<path d="M98.3849 21.2133H99.6641C99.7699 21.6707 100.299 21.966 101.143 21.966C102.184 21.966 102.801 21.4738 102.801 20.6405V19.4305H102.707C102.511 19.7692 102.225 20.0474 101.88 20.2342C101.535 20.4211 101.145 20.5094 100.752 20.4894C99.1351 20.4894 98.1349 19.2453 98.1349 17.3579C98.1349 15.4357 99.1461 14.1737 100.765 14.1737C101.167 14.1598 101.565 14.2561 101.916 14.4521C102.267 14.6481 102.557 14.9363 102.754 15.2852H102.853V14.2783H104.051V20.6343C104.051 22.076 102.916 22.9906 101.125 22.9906C99.5418 22.9907 98.5183 22.2845 98.3849 21.2133ZM102.824 17.3517C102.824 16.0959 102.172 15.2914 101.107 15.2914C100.031 15.2914 99.4264 16.096 99.4264 17.3517C99.4264 18.6082 100.031 19.4128 101.107 19.4128C102.178 19.4128 102.824 18.6144 102.824 17.3517Z" fill="white"/>
<path d="M111.401 18.8802C111.231 19.4564 110.863 19.9548 110.361 20.2882C109.859 20.6216 109.255 20.7688 108.655 20.704C108.238 20.715 107.823 20.6354 107.44 20.4709C107.056 20.3063 106.714 20.0608 106.435 19.7512C106.157 19.4416 105.949 19.0754 105.827 18.6781C105.705 18.2807 105.672 17.8617 105.729 17.4502C105.673 17.0373 105.708 16.6174 105.829 16.2189C105.951 15.8203 106.157 15.4525 106.434 15.1402C106.711 14.8278 107.052 14.5784 107.435 14.4087C107.817 14.239 108.231 14.153 108.65 14.1566C110.413 14.1566 111.476 15.355 111.476 17.3346V17.7687H107.003V17.8384C106.983 18.0697 107.012 18.3026 107.088 18.5221C107.164 18.7415 107.286 18.9427 107.445 19.1127C107.604 19.2828 107.796 19.4179 108.011 19.5095C108.225 19.601 108.456 19.647 108.69 19.6444C108.989 19.6801 109.292 19.6265 109.56 19.4905C109.829 19.3544 110.05 19.1419 110.197 18.8801L111.401 18.8802ZM107.003 16.8486H110.202C110.218 16.637 110.189 16.4245 110.118 16.2247C110.046 16.0249 109.933 15.8422 109.786 15.6884C109.639 15.5346 109.462 15.4131 109.265 15.3316C109.068 15.2502 108.856 15.2106 108.643 15.2155C108.427 15.2128 108.212 15.2532 108.012 15.3343C107.812 15.4154 107.63 15.5356 107.477 15.6878C107.324 15.84 107.203 16.0211 107.122 16.2205C107.04 16.4199 107 16.6334 107.003 16.8486Z" fill="white"/>
<path d="M113.155 14.2784H114.359V15.245H114.452C114.587 14.9095 114.825 14.625 115.132 14.4326C115.44 14.2401 115.8 14.1495 116.163 14.1738C116.35 14.1713 116.537 14.1887 116.721 14.2257V15.4535C116.491 15.4048 116.257 15.3796 116.023 15.3783C115.816 15.3599 115.609 15.3846 115.413 15.4509C115.217 15.5171 115.037 15.6235 114.884 15.763C114.732 15.9026 114.611 16.0723 114.528 16.2613C114.446 16.4503 114.404 16.6544 114.406 16.8604V20.5826H113.155L113.155 14.2784Z" fill="white"/>
<path d="M121.226 17.4276C121.226 15.4356 122.255 14.1737 123.856 14.1737C124.252 14.1556 124.644 14.2499 124.989 14.4458C125.333 14.6416 125.613 14.9309 125.798 15.2797H125.892V11.8174H127.142V20.5824H125.944V19.5864H125.845C125.646 19.9329 125.355 20.2186 125.004 20.4124C124.654 20.6063 124.256 20.701 123.856 20.6863C122.244 20.6863 121.226 19.4244 121.226 17.4276ZM122.517 17.4276C122.517 18.7647 123.151 19.5693 124.21 19.5693C125.264 19.5693 125.915 18.7531 125.915 17.4331C125.915 16.1192 125.257 15.2914 124.21 15.2914C123.158 15.2914 122.517 16.1015 122.517 17.4276Z" fill="white"/>
<path d="M128.832 18.7997C128.832 17.6649 129.681 17.0107 131.188 16.9178L132.905 16.8193V16.2752C132.905 15.6094 132.462 15.2334 131.608 15.2334C130.91 15.2334 130.426 15.4884 130.287 15.9341H129.077C129.204 14.8513 130.228 14.1567 131.665 14.1567C133.254 14.1567 134.149 14.9435 134.149 16.2752V20.5825H132.946V19.6966H132.847C132.646 20.0144 132.364 20.2734 132.03 20.4473C131.696 20.6212 131.321 20.7037 130.944 20.6864C130.678 20.7139 130.409 20.6857 130.155 20.6035C129.901 20.5213 129.666 20.387 129.467 20.2093C129.268 20.0315 129.109 19.8142 129 19.5715C128.89 19.3287 128.833 19.0658 128.832 18.7997ZM132.905 18.261V17.734L131.358 17.8324C130.485 17.8905 130.089 18.1858 130.089 18.7416C130.089 19.309 130.584 19.6392 131.264 19.6392C131.463 19.6592 131.665 19.6392 131.856 19.5803C132.047 19.5213 132.225 19.4247 132.378 19.2961C132.531 19.1676 132.657 19.0097 132.747 18.8318C132.837 18.654 132.891 18.4599 132.905 18.261Z" fill="white"/>
<path d="M136.107 14.2783H137.311V15.2797H137.404C137.563 14.9201 137.83 14.6185 138.169 14.4172C138.508 14.2159 138.902 14.1248 139.295 14.1566C139.603 14.1335 139.913 14.1798 140.201 14.2919C140.488 14.4041 140.747 14.5792 140.958 14.8044C141.168 15.0296 141.325 15.299 141.417 15.5928C141.509 15.8865 141.533 16.197 141.488 16.5013V20.5823H140.237V16.8137C140.237 15.8007 139.795 15.2968 138.87 15.2968C138.661 15.2871 138.452 15.3226 138.258 15.4007C138.064 15.4789 137.889 15.5979 137.745 15.7497C137.601 15.9014 137.492 16.0823 137.425 16.2799C137.359 16.4774 137.335 16.6871 137.358 16.8944V20.5824H136.107V14.2783Z" fill="white"/>
<path d="M145.737 14.1567C147.162 14.1567 148.094 14.8164 148.216 15.9279H147.017C146.901 15.4651 146.446 15.1698 145.737 15.1698C145.039 15.1698 144.509 15.4993 144.509 15.9915C144.509 16.3681 144.829 16.6054 145.516 16.7619L146.569 17.0046C147.774 17.2828 148.338 17.7982 148.338 18.7245C148.338 19.9112 147.227 20.7042 145.714 20.7042C144.207 20.7042 143.224 20.0268 143.113 18.9098H144.365C144.473 19.1756 144.667 19.3977 144.917 19.5404C145.167 19.6831 145.458 19.7381 145.743 19.6966C146.522 19.6966 147.076 19.3494 147.076 18.8455C147.076 18.4695 146.779 18.2262 146.144 18.0758L145.039 17.8208C143.834 17.5371 143.277 16.9991 143.277 16.0612C143.277 14.9436 144.306 14.1567 145.737 14.1567Z" fill="white"/>
<path d="M49.5137 25.3093H52.1297V42.6945H49.5137V25.3093Z" fill="white"/>
<path d="M55.2816 31.6709L56.7105 25.3093H59.2524L57.5212 31.6709H55.2816Z" fill="white"/>
<path d="M69.138 37.9955H62.4784L60.8791 42.6945H58.0583L64.3662 25.3093H67.2969L73.6048 42.6945H70.7359L69.138 37.9955ZM63.1681 35.8271H68.447L65.8447 28.201H65.7719L63.1681 35.8271Z" fill="white"/>
<path d="M87.2263 36.3575C87.2263 40.2964 85.1077 42.8271 81.9104 42.8271C81.1005 42.8692 80.2951 42.6836 79.5862 42.2914C78.8774 41.8992 78.2939 41.3163 77.9026 40.6095H77.8421V46.8876H75.2274V30.0192H77.7583V32.1274H77.8064C78.2158 31.424 78.8091 30.8441 79.5233 30.4495C80.2375 30.055 81.0459 29.8604 81.8623 29.8866C85.0953 29.8866 87.2263 32.4296 87.2263 36.3575ZM84.5388 36.3575C84.5388 33.7913 83.2061 32.1042 81.1726 32.1042C79.1749 32.1042 77.8311 33.8269 77.8311 36.3575C77.8311 38.9114 79.1749 40.6218 81.1726 40.6218C83.2061 40.6218 84.5388 38.947 84.5388 36.3575Z" fill="white"/>
<path d="M101.247 36.3575C101.247 40.2964 99.1283 42.8271 95.9311 42.8271C95.1212 42.8692 94.3157 42.6836 93.6069 42.2914C92.8981 41.8992 92.3146 41.3163 91.9232 40.6095H91.8628V46.8876H89.2474V30.0192H91.779V32.1274H91.8271C92.2364 31.424 92.8298 30.8441 93.544 30.4495C94.2582 30.055 95.0665 29.8604 95.883 29.8866C99.116 29.8866 101.247 32.4296 101.247 36.3575ZM98.5595 36.3575C98.5595 33.7913 97.2267 32.1042 95.1933 32.1042C93.1955 32.1042 91.8518 33.8269 91.8518 36.3575C91.8518 38.9114 93.1955 40.6218 95.1933 40.6218C97.2268 40.6218 98.5595 38.947 98.5595 36.3575Z" fill="white"/>
<path d="M110.513 37.8506C110.707 39.5746 112.39 40.7066 114.69 40.7066C116.894 40.7066 118.479 39.5746 118.479 38.0201C118.479 36.6707 117.523 35.8627 115.259 35.3089L112.994 34.7662C109.786 33.9951 108.297 32.5022 108.297 30.0795C108.297 27.0799 110.924 25.0195 114.654 25.0195C118.346 25.0195 120.877 27.0799 120.962 30.0795H118.323C118.165 28.3445 116.723 27.2973 114.617 27.2973C112.511 27.2973 111.069 28.3569 111.069 29.899C111.069 31.1281 111.99 31.8514 114.242 32.405L116.167 32.8754C119.751 33.7189 121.241 35.1518 121.241 37.6947C121.241 40.9472 118.637 42.9843 114.496 42.9843C110.621 42.9843 108.005 40.9951 107.836 37.8505L110.513 37.8506Z" fill="white"/>
<path d="M126.885 27.0198V30.0194H129.307V32.0797H126.885V39.0674C126.885 40.153 127.37 40.6588 128.435 40.6588C128.723 40.6539 129.01 40.6338 129.295 40.5986V42.6467C128.816 42.7357 128.33 42.776 127.843 42.767C125.264 42.767 124.258 41.8031 124.258 39.3449V32.0797H122.406V30.0194H124.258V27.0198H126.885Z" fill="white"/>
<path d="M130.709 36.3577C130.709 32.3696 133.069 29.8635 136.75 29.8635C140.444 29.8635 142.793 32.3695 142.793 36.3577C142.793 40.3567 140.456 42.8518 136.75 42.8518C133.046 42.8518 130.709 40.3567 130.709 36.3577ZM140.129 36.3577C140.129 33.6219 138.869 32.0073 136.75 32.0073C134.632 32.0073 133.373 33.6342 133.373 36.3577C133.373 39.1043 134.632 40.7067 136.75 40.7067C138.869 40.7067 140.129 39.1043 140.129 36.3577Z" fill="white"/>
<path d="M144.949 30.0194H147.442V32.1768H147.503C147.672 31.503 148.068 30.9075 148.626 30.4905C149.184 30.0734 149.87 29.8602 150.567 29.8867C150.868 29.8857 151.169 29.9182 151.463 29.9838V32.4174C151.082 32.3017 150.686 32.2486 150.288 32.2602C149.908 32.2448 149.529 32.3115 149.178 32.4555C148.826 32.5996 148.51 32.8176 148.252 33.0946C147.993 33.3717 147.797 33.7012 147.678 34.0605C147.56 34.4199 147.52 34.8005 147.563 35.1764V42.6945H144.949L144.949 30.0194Z" fill="white"/>
<path d="M163.516 38.9717C163.165 41.2727 160.913 42.8518 158.032 42.8518C154.326 42.8518 152.026 40.3813 152.026 36.4178C152.026 32.442 154.338 29.8635 157.922 29.8635C161.446 29.8635 163.662 32.2725 163.662 36.1157V37.0071H154.665V37.1643C154.624 37.6308 154.683 38.1007 154.838 38.5429C154.993 38.9851 155.24 39.3894 155.564 39.7289C155.889 40.0685 156.282 40.3356 156.717 40.5124C157.153 40.6892 157.622 40.7718 158.092 40.7545C158.71 40.8121 159.33 40.6697 159.86 40.3485C160.39 40.0273 160.802 39.5444 161.034 38.9717L163.516 38.9717ZM154.678 35.1887H161.046C161.07 34.7693 161.006 34.3496 160.858 33.9559C160.711 33.5622 160.484 33.203 160.19 32.901C159.897 32.5989 159.544 32.3604 159.154 32.2005C158.763 32.0406 158.344 31.9627 157.922 31.9717C157.496 31.9692 157.074 32.0506 156.68 32.2113C156.286 32.3719 155.928 32.6086 155.626 32.9077C155.325 33.2068 155.085 33.5623 154.923 33.9538C154.76 34.3453 154.677 34.765 154.678 35.1887Z" fill="white"/>
</g>
<defs>
<clipPath id="clip0_22103_119863">
<rect width="178" height="56" fill="white"/>
</clipPath>
</defs>
</svg>