<svg width="32" height="32" viewBox="0 0 32 32" fill="none" xmlns="http://www.w3.org/2000/svg">
  <!-- Mobile phone background -->
  <rect x="8" y="2" width="16" height="28" rx="3" fill="#14B8A6" stroke="#0D9488" stroke-width="1.5"/>
  
  <!-- Screen -->
  <rect x="10" y="5" width="12" height="20" rx="1" fill="white"/>
  
  <!-- Booking form elements -->
  <rect x="11" y="7" width="10" height="1.5" rx="0.5" fill="#E5E7EB"/>
  <rect x="11" y="9.5" width="7" height="1.5" rx="0.5" fill="#E5E7EB"/>
  <rect x="11" y="12" width="10" height="1.5" rx="0.5" fill="#E5E7EB"/>
  <rect x="11" y="14.5" width="8" height="1.5" rx="0.5" fill="#E5E7EB"/>
  
  <!-- Book Now button -->
  <rect x="11" y="17" width="10" height="3" rx="1.5" fill="#14B8A6"/>
  <text x="16" y="18.8" font-family="Arial, sans-serif" font-size="4" font-weight="bold" text-anchor="middle" fill="white">BOOK</text>
  
  <!-- Checkmark circle -->
  <circle cx="20" cy="22" r="3" fill="#10B981" stroke="white" stroke-width="1.5"/>
  <path d="M18.5 22L19.5 23L21.5 21" stroke="white" stroke-width="1.5" stroke-linecap="round" stroke-linejoin="round"/>
  
  <!-- Credit card -->
  <rect x="2" y="18" width="8" height="5" rx="1" fill="#3B82F6" stroke="#1D4ED8" stroke-width="1"/>
  <rect x="2.5" y="19" width="7" height="1" fill="#1D4ED8"/>
  <rect x="2.5" y="21" width="2" height="0.5" fill="white"/>
  <rect x="5" y="21" width="1.5" height="0.5" fill="white"/>
  
  <!-- Sparkle effects -->
  <path d="M26 8L27 9.5L28.5 10.5L27 11.5L26 13L25 11.5L23.5 10.5L25 9.5L26 8Z" fill="#FCD34D"/>
  <path d="M4 8L4.5 8.75L5.25 9.25L4.5 9.75L4 10.5L3.5 9.75L2.75 9.25L3.5 8.75L4 8Z" fill="#FCD34D"/>
</svg>