<svg width="32" height="32" viewBox="0 0 32 32" fill="none" xmlns="http://www.w3.org/2000/svg">
  <!-- Clock background -->
  <circle cx="16" cy="16" r="14" fill="#3B82F6" stroke="#1D4ED8" stroke-width="2"/>
  
  <!-- Clock face -->
  <circle cx="16" cy="16" r="10" fill="white" stroke="#E5E7EB" stroke-width="1"/>
  
  <!-- Clock numbers -->
  <text x="16" y="9" font-family="Arial, sans-serif" font-size="4" font-weight="bold" text-anchor="middle" fill="#374151">12</text>
  <text x="23" y="17.5" font-family="Arial, sans-serif" font-size="4" font-weight="bold" text-anchor="middle" fill="#374151">3</text>
  <text x="16" y="25" font-family="Arial, sans-serif" font-size="4" font-weight="bold" text-anchor="middle" fill="#374151">6</text>
  <text x="9" y="17.5" font-family="Arial, sans-serif" font-size="4" font-weight="bold" text-anchor="middle" fill="#374151">9</text>
  
  <!-- Clock hands -->
  <line x1="16" y1="16" x2="16" y2="11" stroke="#1D4ED8" stroke-width="2" stroke-linecap="round"/>
  <line x1="16" y1="16" x2="20" y2="16" stroke="#1D4ED8" stroke-width="2" stroke-linecap="round"/>
  
  <!-- Center dot -->
  <circle cx="16" cy="16" r="1.5" fill="#1D4ED8"/>
  
  <!-- Headset -->
  <path d="M10 12C10 8.68629 12.6863 6 16 6C19.3137 6 22 8.68629 22 12V14H21C20.4477 14 20 14.4477 20 15V17C20 17.5523 20.4477 18 21 18H22V20C22 21.1046 21.1046 22 20 22H18" stroke="#10B981" stroke-width="2" stroke-linecap="round"/>
  <path d="M12 14H11C10.4477 14 10 14.4477 10 15V17C10 17.5523 10.4477 18 11 18H12V14Z" fill="#10B981"/>
  <path d="M20 14H21C21.5523 14 22 14.4477 22 15V17C22 17.5523 21.5523 18 21 18H20V14Z" fill="#10B981"/>
  
  <!-- Microphone -->
  <rect x="17" y="19" width="2" height="4" rx="1" fill="#10B981"/>
  <path d="M16 23H20" stroke="#10B981" stroke-width="1.5" stroke-linecap="round"/>
  
  <!-- 24/7 text -->
  <rect x="24" y="4" width="16" height="8" rx="2" fill="#EF4444" transform="rotate(15 24 4)"/>
  <text x="27" y="8" font-family="Arial, sans-serif" font-size="3" font-weight="bold" text-anchor="middle" fill="white" transform="rotate(15 27 8)">24/7</text>
  
  <!-- Chat bubbles -->
  <circle cx="6" cy="6" r="3" fill="#10B981"/>
  <circle cx="6" cy="6" r="1" fill="white"/>
  <circle cx="4" cy="26" r="2.5" fill="#FCD34D"/>
  <circle cx="4" cy="26" r="0.8" fill="white"/>
  
  <!-- Support waves -->
  <path d="M28 20C26 18 26 22 28 20Z" stroke="#10B981" stroke-width="1.5" stroke-linecap="round"/>
  <path d="M29 18C27 16 27 24 29 22" stroke="#10B981" stroke-width="1" stroke-linecap="round"/>
</svg>